<svg id="Layer_1" enable-background="new 0 0 30 30" height="30" viewBox="0 0 30 30" width="30" xmlns="http://www.w3.org/2000/svg"><g><path d="m23.22 16.815c-.825-4.154 3.117-6.59 3.117-6.59s-1.537-2.22-4.117-2.79c-2.58-.574-3.871.139-5.159.68-1.29.536-1.934.536-1.934.536-1.861 0-3.222-1.97-6.771-1.07-2.441.616-5.015 3.436-5.48 6.804-.466 3.367.538 7.664 2.472 10.994 1.936 3.332 3.906 4.586 5.303 4.621s2.794-1.002 4.478-1.256c1.684-.246 2.718.613 4.37 1.078 1.648.465 2.224.031 4.117-1.58 1.9-1.611 3.623-6.236 3.623-6.236s-3.193-1.032-4.019-5.191z"/><path d="m19.568 4.747c1.828-1.865 1.207-4.746 1.207-4.746s-2.566.447-4.285 2.238c-1.721 1.793-1.436 4.619-1.436 4.619s2.684-.248 4.514-2.111z"/></g></svg>
