<svg id="Layer_1" enable-background="new 0 0 30 30" height="30" viewBox="0 0 30 30" width="30" xmlns="http://www.w3.org/2000/svg"><g clip-rule="evenodd" fill-rule="evenodd"><path d="m25.019 20.877c.646.277.914.816 1.034 1.438.129.664.327 1.285.829 1.771.067.064.115.15.167.23.618.939.477 1.602-.49 2.162-.433.252-.891.461-1.338.686-.674.338-1.265.771-1.765 1.348-.636.73-1.413 1.256-2.392 1.439-1.171.219-2.2-.293-2.7-1.387-.107-.234-.228-.305-.48-.318-.621-.037-1.242-.1-1.858-.191-1.085-.16-2.127.107-3.184.262-.418.061-.709.199-.986.555-.546.701-1.372.881-2.204.771-.675-.09-1.368-.26-1.98-.549-.892-.418-1.815-.611-2.775-.715-.363-.039-.728-.088-1.084-.164-.963-.209-1.42-.834-1.164-1.779.211-.779.24-1.521.14-2.316-.143-1.135.201-1.668 1.328-1.988.902-.256 1.245-1.037 1.797-1.627.043-.047.035-.156.028-.234-.157-1.541.303-2.947.949-4.307.708-1.49 1.657-2.825 2.686-4.108 1.119-1.395 1.572-3 1.458-4.777-.085-1.338-.199-2.678.123-4.006.42-1.74 1.616-2.844 3.394-3.012.759-.072 1.556-.104 2.295.045 1.727.346 2.545 1.613 2.931 3.223.303 1.264.342 2.553.286 3.84-.055 1.242.231 2.365.979 3.359.538.715 1.128 1.391 1.632 2.129.632.928 1.274 1.86 1.775 2.86.834 1.663 1.152 3.323.569 5.36zm-13.689 3.756c.435.732.932 1.324 1.756 1.607 1.837.633 3.51.25 5.096-.74.177-.109.36-.332.396-.527.168-.943.287-1.896.422-2.848.126-.893.308-1.754 1.223-2.219.079-.041.118-.186.149-.289.168-.549.438-.813.991-.727 1.104.172 2.2.418 2.577 1.764.226-.375.112-.697-.124-.938-.268-.275-.58-.539-.923-.701-.436-.203-.591-.402-.551-.941.137-1.842-.721-3.307-1.951-4.593-.026-.027-.074-.035-.112-.051 1.25 1.479 2.077 3.052 1.493 5.054-.656-.049-.665-.047-.724-.334-.246-1.195-.733-2.295-1.269-3.383-.445-.909-.84-1.847-1.211-2.788-.325-.824-.586-1.678-.868-2.496-.308.203-.597.418-.908.596-.394.225-.811.406-1.205.631-.997.566-1.807.49-2.679-.26-.239-.207-.504-.383-.812-.613-.149 1.578-.68 2.939-1.274 4.282-.269.607-.542 1.211-.823 1.811-.532 1.137-.817 2.336-.927 3.672-.479-.693-.612-1.377-.565-2.105.06-.941.401-1.793.836-2.615.165-.313.311-.633.467-.952-.03-.014-.061-.027-.091-.041-.689 1.088-1.312 2.211-1.562 3.492-.326 1.668.228 2.766 1.679 3.627.911.539 1.743 1.199 2.233 2.18.395.785.14 1.273-.739 1.445zm-1.918 4.08c.843-.063 1.447-.176 1.793-.793.346-.615.231-1.213-.14-1.773-.234-.355-.507-.686-.743-1.041-.442-.668-.875-1.344-1.302-2.021-.308-.49-.559-1.02-.907-1.477-.517-.68-1.411-.99-2.092.072-.37.578-.86.943-1.52 1.143-.686.207-.873.613-.816 1.336.042.547.124 1.129-.008 1.645-.305 1.193-.102 1.574 1.121 1.699 1.11.115 2.193.291 3.212.814.482.246 1.06.304 1.402.396zm11.278-7.754c-.163.207-.37.383-.459.607-.141.348-.256.727-.286 1.098-.096 1.156-.208 2.303-.6 3.404-.08.225-.126.461-.169.695-.134.719-.063 1.389.549 1.887.603.494 1.294.51 1.953.191.484-.232.974-.537 1.335-.928.64-.693 1.384-1.195 2.225-1.588.323-.15.642-.32.936-.52.339-.23.405-.502.225-.873-.119-.242-.266-.484-.448-.684-.318-.35-.483-.758-.581-1.207-.062-.279-.127-.563-.244-.82-.278-.621-1.081-.758-1.628-.359-.348.254-.753.459-1.162.596-.52.176-.978-.029-1.247-.506-.161-.284-.249-.608-.399-.993zm-6.282-10.48c.155-.041.431-.068.667-.182.612-.287 1.208-.609 1.806-.926.112-.059.214-.141.31-.225.642-.572.539-1.207-.244-1.553-.561-.246-1.119-.496-1.674-.756-.73-.338-1.436-.357-2.099.15-.427.326-.844.666-1.26 1.006-.249.201-.308.457-.181.756.201.471 1.813 1.648 2.334 1.701.075.01.151.014.341.029zm2.157-3.369c.148.064.264.104.366.164.337.201.564.066.626-.268.091-.498.213-1.018.148-1.508-.107-.818-.719-1.375-1.358-1.408-.768-.037-1.407.598-1.546 1.531-.107.717-.088.744.611.908.075-.299.104-.621.243-.885.09-.172.343-.363.517-.357.174.004.409.211.498.389.234.466.155.946-.105 1.434zm4.688 13.349c.024.4.109.84.544 1.045.413.197.784-.023 1.12-.268.083-.061.16-.135.227-.213.239-.275.236-.604-.064-.811-.279-.193-.595-.357-.917-.465-.609-.202-.914.04-.91.712zm-8.094-13.812c.2-.158.511-.283.529-.443.068-.594-.086-1.16-.547-1.588-.403-.373-.884-.316-1.233.121-.561.699-.47 2.047.196 2.703.113-.084.229-.17.354-.264-.33-.363-.396-.779-.298-1.199.042-.178.242-.316.37-.473.145.123.339.221.421.377.109.208.131.46.208.766z"/><path d="m12.789 10.696c.083.07.167.137.247.211.788.73 1.405.816 2.355.314.274-.145.537-.313.811-.461.101-.053.218-.078.343-.07-.781.41-1.452 1.1-2.443.963-.592-.082-.998-.461-1.385-.861.024-.031.048-.063.072-.096z"/></g></svg>
